<?xml version="1.0" standalone="no"?>
<!DOCTYPE svg PUBLIC "-//W3C//DTD SVG 20010904//EN"
 "http://www.w3.org/TR/2001/REC-SVG-20010904/DTD/svg10.dtd">
<svg version="1.0" xmlns="http://www.w3.org/2000/svg"
 width="350.000000pt" height="350.000000pt" viewBox="0 0 350.000000 350.000000"
 preserveAspectRatio="xMidYMid meet">
<metadata>
Created by potrace 1.14, written by Peter Selinger 2001-2017
</metadata>
<g transform="translate(0.000000,350.000000) scale(0.100000,-0.100000)"
fill="#000000" stroke="none">
<path d="M2009 3188 c-114 -15 -191 -31 -237 -48 -170 -64 -205 -84 -283 -166
-100 -107 -144 -230 -144 -414 0 -94 4 -128 23 -185 22 -64 69 -156 109 -213
15 -21 13 -24 -54 -91 -39 -37 -75 -83 -82 -101 -6 -18 -31 -52 -55 -74 -25
-23 -129 -122 -231 -221 -103 -99 -224 -215 -269 -258 -291 -280 -526 -521
-527 -540 0 -12 -2 -31 -4 -42 -21 -141 -21 -126 -11 -230 8 -93 28 -128 73
-133 27 -3 31 1 36 27 6 30 8 31 65 31 49 0 67 -6 118 -36 58 -35 61 -36 174
-37 l115 -2 17 35 c12 23 17 51 15 82 -4 50 2 58 49 58 31 0 45 33 49 114 2
33 9 79 15 103 12 42 13 43 59 44 25 1 60 2 76 3 43 1 55 13 55 51 0 39 16 86
33 97 6 3 49 10 95 14 80 6 85 8 103 38 10 17 19 43 19 58 0 29 -3 28 130 60
53 13 56 16 86 73 27 54 34 60 68 66 29 5 53 22 104 72 37 35 78 68 90 72 21
6 23 4 20 -22 -3 -25 2 -31 42 -50 50 -24 76 -28 113 -14 20 8 31 28 56 103
25 77 29 103 24 150 l-6 57 37 7 c41 7 102 1 221 -23 123 -24 330 -13 456 24
111 34 215 95 274 161 141 160 213 386 171 537 -24 85 -65 183 -97 230 -23 35
-113 138 -160 184 -105 104 -297 217 -469 274 -165 56 -435 92 -561 75z m596
-444 c32 -12 71 -40 109 -77 58 -57 59 -59 40 -78 -24 -24 -116 -41 -174 -33
-95 14 -200 80 -242 152 -18 30 -18 30 11 41 75 32 163 30 256 -5z"/>
</g>
</svg>
